<svg width="256" height="256" viewBox="0 0 256 256" fill="none" xmlns="http://www.w3.org/2000/svg">
<path d="M64.7617 43.8125L96.5 142.738L128.141 43.8125H173.258V186H138.883V152.797L142.203 84.8281L107.828 186H85.1719L50.6992 84.7305L54.0195 152.797V186H19.7422V43.8125H64.7617Z" fill="#199705"/>
<path d="M192.465 139.906L210.043 80.3359H245.297L202.23 203.676L200.375 208.168C194.255 221.84 183.448 228.676 167.953 228.676C163.656 228.676 159.132 228.025 154.379 226.723V203.188H158.676C163.298 203.188 166.814 202.504 169.223 201.137C171.697 199.835 173.52 197.458 174.691 194.008L177.328 186.977L140.609 80.3359H175.766L192.465 139.906Z" fill="#A2B000"/>
</svg>
